<?xml version="1.0" encoding="UTF-8"?>
<!DOCTYPE svg PUBLIC "-//W3C//DTD SVG 1.1//EN" "http://www.w3.org/Graphics/SVG/1.1/DTD/svg11.dtd">
<svg version="1.1" xmlns="http://www.w3.org/2000/svg" xmlns:xlink="http://www.w3.org/1999/xlink" x="0" y="0" width="80" height="100" viewBox="0, 0, 80, 100">
  <g id="Layer_1">
    <path d="M48.004,68.149 C47.255,67.673 46.452,67.197 45.591,66.717 C44.238,65.967 42.75,65.215 41.095,64.458 C41.039,64.434 40.981,64.41 40.924,64.388 C40.903,64.38 40.558,64.249 40.002,64.008 C40.001,64.008 40.001,64.008 40.001,64.008 C39.311,63.71 38.286,63.237 37.103,62.6 C33.428,60.62 28.252,57.049 27.01,52.177 L52.992,52.177 C52.662,53.473 52.046,54.674 51.261,55.78 L31.904,55.78 C33.547,57.53 35.698,59.014 37.679,60.137 L46.814,60.137 C45.474,61.12 44.105,61.95 42.897,62.6 C44.786,63.491 46.482,64.38 47.993,65.272 C52.777,62.159 58.165,57.082 58.165,50 C58.165,37.884 42.393,31.626 40.862,31.049 C40.566,30.913 40.284,30.778 39.999,30.643 C38.978,30.16 38.029,29.681 37.159,29.209 C35.258,28.18 33.706,27.177 32.433,26.194 L43.218,26.194 C45.79,24.667 47.493,23.24 48.621,21.837 L28.392,21.837 C27.681,20.633 27.269,19.439 27.037,18.234 L52.964,18.234 C52.273,21.819 50.032,25.312 42.842,29.209 C44.023,29.713 45.901,30.59 48.004,31.851 C57.337,25.909 58.192,20.026 58.164,13.214 L58.162,12.45 C58.162,11.097 57.065,10 55.713,10 C54.361,10 53.264,11.097 53.264,12.45 L53.267,13.233 C53.267,13.45 53.268,13.664 53.268,13.878 L26.733,13.878 C26.733,13.664 26.733,13.45 26.734,13.233 L26.736,12.45 C26.736,11.097 25.64,10 24.287,10 C22.934,10 21.838,11.097 21.838,12.45 L21.836,13.214 C21.809,20.026 22.663,25.909 31.996,31.851 C32.745,32.326 33.547,32.805 34.408,33.281 C35.761,34.031 37.248,34.783 38.904,35.54 C38.959,35.564 39.018,35.59 39.075,35.611 C39.15,35.638 43.106,37.13 46.822,39.862 L33.184,39.862 C34.523,38.877 35.893,38.049 37.102,37.397 C35.214,36.508 33.517,35.618 32.007,34.727 C27.223,37.841 21.835,42.918 21.835,50 C21.835,57.081 27.222,62.158 32.006,65.271 C32.836,65.812 33.648,66.295 34.409,66.717 C36.77,68.025 38.658,68.768 39.138,68.95 C39.436,69.086 39.712,69.22 39.997,69.355 C39.998,69.354 39.998,69.354 40,69.354 C41.021,69.839 41.97,70.316 42.84,70.789 C50.643,75.019 52.616,78.771 53.108,82.684 L26.892,82.684 C27.044,81.474 27.341,80.28 27.904,79.08 L49.281,79.08 C48.379,77.661 46.944,76.235 44.678,74.725 L31.321,74.725 C32.766,73.448 34.662,72.144 37.159,70.789 C35.978,70.285 34.1,69.41 31.996,68.148 C22.663,74.09 21.809,79.972 21.836,86.786 L21.838,87.55 C21.838,88.904 22.934,89.999 24.287,89.999 C25.64,89.999 26.736,88.902 26.736,87.55 L26.735,87.039 L53.266,87.039 L53.264,87.55 C53.264,88.904 54.36,89.999 55.713,89.999 C57.066,89.999 58.161,88.902 58.161,87.55 L58.164,86.786 C58.191,79.975 57.337,74.092 48.004,68.149 z M52.983,47.821 L27.008,47.821 C27.339,46.526 27.954,45.326 28.739,44.218 L51.263,44.218 C52.047,45.325 52.653,46.527 52.983,47.821 z" fill="#000000"/>
  </g>
</svg>
